<svg width="150" height="30" viewBox="0 0 150 30" fill="none" xmlns="http://www.w3.org/2000/svg">
<g clip-path="url(#clip0_1088_10111)">
<path d="M92.8048 29.8955C92.5663 29.8955 92.3513 29.7548 92.2598 29.539L89.7879 23.7056C89.5404 23.1212 88.6529 23.2949 88.6529 23.9273V29.3169C88.6529 29.6365 88.3887 29.8955 88.0628 29.8955H78.0095C77.6836 29.8955 77.4194 29.6365 77.4194 29.3169V1.07853C77.4194 0.759242 77.6836 0.5 78.0095 0.5H95.7745C96.0132 0.5 96.2284 0.641192 96.3197 0.857374L98.7916 6.7145C99.0385 7.29977 99.9269 7.12665 99.9269 6.49333V1.07853C99.9269 0.759242 100.191 0.5 100.517 0.5H110.57C110.896 0.5 111.16 0.759242 111.16 1.07853V29.3169C111.16 29.6365 110.896 29.8955 110.57 29.8955H92.8048Z" fill="#6360FF"/>
<path d="M131.705 23.7056C131.458 23.1212 130.57 23.2949 130.57 23.9273V29.3169C130.57 29.6365 130.306 29.8955 129.98 29.8955H116.169C115.843 29.8955 115.579 29.6365 115.579 29.3169V1.07853C115.579 0.759242 115.843 0.5 116.169 0.5H129.98C130.306 0.5 130.57 0.759242 130.57 1.07853V6.49333C130.57 7.12665 131.459 7.29977 131.705 6.7145L134.177 0.857374C134.269 0.641192 134.484 0.5 134.722 0.5H149.202C149.634 0.5 149.919 0.9391 149.737 1.32284L143.434 14.6031C143.362 14.7542 143.36 14.9288 143.429 15.0814L149.76 29.0826C149.933 29.4648 149.647 29.8955 149.221 29.8955H134.722C134.483 29.8955 134.269 29.7548 134.177 29.539L131.705 23.7056Z" fill="#6360FF"/>
<path d="M25.5025 12.9985C25.8925 13.277 26.44 13.0039 26.44 12.5309V1.07852C26.44 0.759013 26.7042 0.5 27.0301 0.5H37.1755C37.5014 0.5 37.7656 0.759013 37.7656 1.07852V29.4261C37.7656 29.7456 37.5014 30.0047 37.1755 30.0047H23.7315C23.5744 30.0047 23.4238 29.9432 23.313 29.8339L19.5406 26.1131C19.3201 25.8956 18.9647 25.8846 18.7306 26.0881L14.393 29.8588C14.2851 29.9529 14.1458 30.0047 14.0015 30.0047H0.590087C0.264191 30.0047 0 29.7456 0 29.4261V1.07852C0 0.759013 0.264192 0.5 0.59009 0.5H10.6948C11.0207 0.5 11.2849 0.759013 11.2849 1.07852V12.5392C11.2849 13.0107 11.8293 13.2842 12.2196 13.0088L18.0932 8.86588C18.3297 8.69909 18.6136 8.60934 18.9049 8.60934C19.1991 8.60934 19.4857 8.70082 19.7234 8.87063L25.5025 12.9985Z" fill="#6360FF"/>
<path d="M42.5071 25.7213C42.5071 25.4998 42.6893 25.3203 42.9138 25.3203H72.1695C72.394 25.3203 72.5762 25.4998 72.5762 25.7213V29.6036C72.5762 29.8252 72.394 30.0047 72.1695 30.0047H42.9138C42.6893 30.0047 42.5071 29.8252 42.5071 29.6036V25.7213Z" fill="#6360FF"/>
<path fill-rule="evenodd" clip-rule="evenodd" d="M43.0747 0.5C42.8513 0.5 42.6694 0.672401 42.6676 0.886204L42.4863 22.1634C42.4843 22.3796 42.6671 22.5559 42.8934 22.5559H72.1736C72.3985 22.5559 72.5807 22.3816 72.5807 22.1665V0.889379C72.5807 0.674332 72.3985 0.5 72.1736 0.5H43.0747ZM51.8247 5.49913C51.5998 5.49913 51.4176 5.67348 51.4176 5.88852V17.075C51.4176 17.29 51.5998 17.4644 51.8247 17.4644H66.9543C67.1789 17.4644 67.3614 17.29 67.3614 17.075V5.88852C67.3614 5.67348 67.1789 5.49913 66.9543 5.49913H51.8247Z" fill="#6360FF"/>
<path d="M54.551 9.93751C54.551 9.74544 54.7131 9.58974 54.9127 9.58974H58.4493C58.649 9.58974 58.8111 9.74544 58.8111 9.93751V13.1185C58.8111 13.3105 58.649 13.4663 58.4493 13.4663H54.9127C54.7131 13.4663 54.551 13.3105 54.551 13.1185V9.93751Z" fill="#6360FF"/>
<path d="M61.4071 9.93751C61.4071 9.74544 61.5691 9.58974 61.7688 9.58974H65.3054C65.5051 9.58974 65.6671 9.74544 65.6671 9.93751V13.1185C65.6671 13.3106 65.5051 13.4663 65.3054 13.4663H61.7688C61.5691 13.4663 61.4071 13.3106 61.4071 13.1185V9.93751Z" fill="#6360FF"/>
</g>
<defs>
<clipPath id="clip0_1088_10111">
<rect width="150" height="29" fill="white" transform="translate(0 0.5)"/>
</clipPath>
</defs>
</svg>
